<mxfile host="app.diagrams.net" modified="2023-02-24T08:58:52.053Z" agent="5.0 (X11; Linux x86_64) AppleWebKit/537.36 (KHTML, like Gecko) Chrome/110.0.0.0 Safari/537.36" etag="2Y49GdxSUHhjVd5uRxUE" version="20.8.23" type="github">
  <diagram name="Page-1" id="jUZhV9qh7ECJqlfnPmOa">
    <mxGraphModel dx="616" dy="484" grid="1" gridSize="10" guides="1" tooltips="1" connect="1" arrows="1" fold="1" page="1" pageScale="1" pageWidth="850" pageHeight="1100" math="0" shadow="0">
      <root>
        <mxCell id="0" />
        <mxCell id="1" parent="0" />
        <mxCell id="pmI92yxCtNxKzy5I8zgO-21" value="" style="edgeStyle=orthogonalEdgeStyle;rounded=0;orthogonalLoop=1;jettySize=auto;html=1;" edge="1" parent="1" source="pmI92yxCtNxKzy5I8zgO-2" target="pmI92yxCtNxKzy5I8zgO-5">
          <mxGeometry relative="1" as="geometry" />
        </mxCell>
        <mxCell id="pmI92yxCtNxKzy5I8zgO-2" value="start" style="ellipse;whiteSpace=wrap;html=1;container=0;" vertex="1" parent="1">
          <mxGeometry x="260" y="120" width="120" height="40" as="geometry" />
        </mxCell>
        <mxCell id="pmI92yxCtNxKzy5I8zgO-3" value="input 3 numbers" style="shape=parallelogram;perimeter=parallelogramPerimeter;whiteSpace=wrap;html=1;fixedSize=1;container=0;" vertex="1" parent="1">
          <mxGeometry x="100" y="205" width="120" height="40" as="geometry" />
        </mxCell>
        <mxCell id="pmI92yxCtNxKzy5I8zgO-23" value="" style="edgeStyle=orthogonalEdgeStyle;rounded=0;orthogonalLoop=1;jettySize=auto;html=1;" edge="1" parent="1" source="pmI92yxCtNxKzy5I8zgO-5" target="pmI92yxCtNxKzy5I8zgO-22">
          <mxGeometry relative="1" as="geometry" />
        </mxCell>
        <mxCell id="pmI92yxCtNxKzy5I8zgO-5" value="Initialize variable" style="rounded=0;whiteSpace=wrap;html=1;container=0;" vertex="1" parent="1">
          <mxGeometry x="260" y="200" width="120" height="40" as="geometry" />
        </mxCell>
        <mxCell id="pmI92yxCtNxKzy5I8zgO-36" value="" style="edgeStyle=orthogonalEdgeStyle;rounded=0;orthogonalLoop=1;jettySize=auto;html=1;" edge="1" parent="1" source="pmI92yxCtNxKzy5I8zgO-7" target="pmI92yxCtNxKzy5I8zgO-9">
          <mxGeometry relative="1" as="geometry" />
        </mxCell>
        <mxCell id="pmI92yxCtNxKzy5I8zgO-7" value="print the get_total" style="shape=parallelogram;perimeter=parallelogramPerimeter;whiteSpace=wrap;html=1;fixedSize=1;rounded=0;container=0;" vertex="1" parent="1">
          <mxGeometry x="400" y="420" width="120" height="40" as="geometry" />
        </mxCell>
        <mxCell id="pmI92yxCtNxKzy5I8zgO-9" value="stop" style="ellipse;whiteSpace=wrap;html=1;container=0;" vertex="1" parent="1">
          <mxGeometry x="560" y="420" width="120" height="40" as="geometry" />
        </mxCell>
        <mxCell id="pmI92yxCtNxKzy5I8zgO-33" value="" style="edgeStyle=orthogonalEdgeStyle;rounded=0;orthogonalLoop=1;jettySize=auto;html=1;" edge="1" parent="1" source="pmI92yxCtNxKzy5I8zgO-12" target="pmI92yxCtNxKzy5I8zgO-5">
          <mxGeometry relative="1" as="geometry" />
        </mxCell>
        <mxCell id="pmI92yxCtNxKzy5I8zgO-12" value="" style="strokeWidth=2;html=1;shape=mxgraph.flowchart.annotation_2;align=left;labelPosition=right;pointerEvents=1;dashed=1;container=0;" vertex="1" parent="1">
          <mxGeometry x="420" y="200" width="50" height="40" as="geometry" />
        </mxCell>
        <mxCell id="pmI92yxCtNxKzy5I8zgO-13" value="get_total = 0" style="text;html=1;align=center;verticalAlign=middle;resizable=0;points=[];autosize=1;strokeColor=none;fillColor=none;container=0;" vertex="1" parent="1">
          <mxGeometry x="440" y="205" width="90" height="30" as="geometry" />
        </mxCell>
        <mxCell id="pmI92yxCtNxKzy5I8zgO-32" value="" style="edgeStyle=orthogonalEdgeStyle;rounded=0;orthogonalLoop=1;jettySize=auto;html=1;" edge="1" parent="1" source="pmI92yxCtNxKzy5I8zgO-15" target="pmI92yxCtNxKzy5I8zgO-22">
          <mxGeometry relative="1" as="geometry" />
        </mxCell>
        <mxCell id="pmI92yxCtNxKzy5I8zgO-15" value="" style="strokeWidth=2;html=1;shape=mxgraph.flowchart.annotation_2;align=left;labelPosition=right;pointerEvents=1;dashed=1;container=0;" vertex="1" parent="1">
          <mxGeometry x="420" y="297.5" width="50" height="40" as="geometry" />
        </mxCell>
        <mxCell id="pmI92yxCtNxKzy5I8zgO-16" value="while user entered data is true" style="text;html=1;align=center;verticalAlign=middle;resizable=0;points=[];autosize=1;strokeColor=none;fillColor=none;container=0;" vertex="1" parent="1">
          <mxGeometry x="440" y="302.5" width="180" height="30" as="geometry" />
        </mxCell>
        <mxCell id="pmI92yxCtNxKzy5I8zgO-31" value="" style="edgeStyle=orthogonalEdgeStyle;rounded=0;orthogonalLoop=1;jettySize=auto;html=1;" edge="1" parent="1" source="pmI92yxCtNxKzy5I8zgO-18" target="pmI92yxCtNxKzy5I8zgO-26">
          <mxGeometry relative="1" as="geometry" />
        </mxCell>
        <mxCell id="pmI92yxCtNxKzy5I8zgO-18" value="" style="strokeWidth=2;html=1;shape=mxgraph.flowchart.annotation_2;align=left;labelPosition=right;pointerEvents=1;dashed=1;container=0;direction=south;" vertex="1" parent="1">
          <mxGeometry x="240" y="500" width="160" height="50" as="geometry" />
        </mxCell>
        <mxCell id="pmI92yxCtNxKzy5I8zgO-19" value="print(numb_sorted)" style="text;html=1;align=center;verticalAlign=middle;resizable=0;points=[];autosize=1;strokeColor=none;fillColor=none;container=0;" vertex="1" parent="1">
          <mxGeometry x="260" y="530" width="120" height="30" as="geometry" />
        </mxCell>
        <mxCell id="pmI92yxCtNxKzy5I8zgO-27" value="" style="edgeStyle=orthogonalEdgeStyle;rounded=0;orthogonalLoop=1;jettySize=auto;html=1;" edge="1" parent="1" source="pmI92yxCtNxKzy5I8zgO-22" target="pmI92yxCtNxKzy5I8zgO-26">
          <mxGeometry relative="1" as="geometry" />
        </mxCell>
        <mxCell id="pmI92yxCtNxKzy5I8zgO-22" value="while" style="rhombus;whiteSpace=wrap;html=1;rounded=0;" vertex="1" parent="1">
          <mxGeometry x="280" y="275" width="80" height="85" as="geometry" />
        </mxCell>
        <mxCell id="pmI92yxCtNxKzy5I8zgO-28" style="edgeStyle=orthogonalEdgeStyle;rounded=0;orthogonalLoop=1;jettySize=auto;html=1;entryX=0;entryY=0.5;entryDx=0;entryDy=0;" edge="1" parent="1" source="pmI92yxCtNxKzy5I8zgO-26" target="pmI92yxCtNxKzy5I8zgO-22">
          <mxGeometry relative="1" as="geometry">
            <Array as="points">
              <mxPoint x="240" y="443" />
              <mxPoint x="240" y="318" />
            </Array>
          </mxGeometry>
        </mxCell>
        <mxCell id="pmI92yxCtNxKzy5I8zgO-35" value="" style="edgeStyle=orthogonalEdgeStyle;rounded=0;orthogonalLoop=1;jettySize=auto;html=1;" edge="1" parent="1" source="pmI92yxCtNxKzy5I8zgO-26" target="pmI92yxCtNxKzy5I8zgO-7">
          <mxGeometry relative="1" as="geometry" />
        </mxCell>
        <mxCell id="pmI92yxCtNxKzy5I8zgO-26" value="if" style="rhombus;whiteSpace=wrap;html=1;rounded=0;" vertex="1" parent="1">
          <mxGeometry x="280" y="400" width="80" height="80" as="geometry" />
        </mxCell>
        <mxCell id="pmI92yxCtNxKzy5I8zgO-29" value="true" style="text;html=1;align=center;verticalAlign=middle;resizable=0;points=[];autosize=1;strokeColor=none;fillColor=none;" vertex="1" parent="1">
          <mxGeometry x="240" y="405" width="40" height="30" as="geometry" />
        </mxCell>
      </root>
    </mxGraphModel>
  </diagram>
</mxfile>
